<?xml version="1.0" encoding="utf-8"?>
<svg width="87px" height="92px" viewBox="0 0 87 92" version="1.1" xmlns:xlink="http://www.w3.org/1999/xlink" xmlns="http://www.w3.org/2000/svg">
  <path d="M57.4638 3.68127C32.6473 8.36464 -1.69073 18.0078 0.0875587 35.3405C2.85764 62.34 45.11 109.113 70.5108 85.5846C85.3983 71.7946 86.8444 44.7694 85.4911 24.7606C84.5595 10.9855 71.0309 1.1209 57.4638 3.68127Z" id="Path-2" fill="#D8EFF1" fill-rule="evenodd" stroke="none" />
  <g id="Group-13" transform="translate(9 15)">
    <path d="M63.7075 15.8747C63.7075 15.8747 63.8922 -1.0743 46.3513 0.258766C46.3513 0.258766 17.9789 3.15803 33.7959 36.252C33.7959 36.252 38.5965 56.8193 45.2438 59.1046C51.8907 61.3899 63.3383 61.009 65 48.2496" id="Stroke-1" fill="none" fill-rule="evenodd" stroke="#29ABB7" stroke-width="3" stroke-linecap="round" stroke-linejoin="round" />
    <path d="M59 23.478C59 23.478 57.8949 14.2885 49.9712 13.2693C44.563 12.5742 39.5941 16.2036 38.4106 21.4459C37.8501 23.9304 37.7698 27.1369 38.7664 31.1841" id="Stroke-3" fill="none" fill-rule="evenodd" stroke="#29ABB7" stroke-width="3" stroke-linecap="round" stroke-linejoin="round" />
    <path d="M56.4055 18.1841C56.4055 18.1841 45.9541 18.9924 45.0444 31.8474C44.8317 34.8528 45.3791 37.8792 46.7676 40.5383C48.3652 43.5973 51.2382 46.6184 56.0272 44.446C56.0272 44.446 60.7567 42.9012 57.919 36.7222C55.0809 30.5426 54.7025 28.2254 60 27.6461" id="Stroke-5" fill="none" fill-rule="evenodd" stroke="#29ABB7" stroke-width="3" stroke-linecap="round" stroke-linejoin="round" />
    <path d="M8 3.18406L22 7.18406" id="Stroke-7" fill="none" fill-rule="evenodd" stroke="#29ABB7" stroke-width="3" stroke-linecap="round" stroke-linejoin="round" />
    <path d="M0 29.1841L19 28.1841" id="Stroke-9" fill="none" fill-rule="evenodd" stroke="#29ABB7" stroke-width="3" stroke-linecap="round" stroke-linejoin="round" />
    <path d="M13 54.1841L24 45.1841" id="Stroke-11" fill="none" fill-rule="evenodd" stroke="#29ABB7" stroke-width="3" stroke-linecap="round" stroke-linejoin="round" />
  </g>
</svg>