<?xml version="1.0" encoding="utf-8"?>
<svg width="20px" height="20.00061px" viewBox="0 0 20 20.00061" version="1.1" xmlns:xlink="http://www.w3.org/1999/xlink" xmlns="http://www.w3.org/2000/svg">
  <defs>
    <path d="M10.6462 7.1136C10.3542 7.6196 9.8692 7.6746 9.6742 7.6746C9.4792 7.6746 8.9952 7.6196 8.7022 7.1136C8.4102 6.6076 8.6042 6.1596 8.7022 5.9906C8.7992 5.8226 9.0892 5.4296 9.6742 5.4296C10.2592 5.4296 10.5492 5.8226 10.6462 5.9906C10.7442 6.1596 10.9382 6.6076 10.6462 7.1136M9.6742 4.2236C7.8812 4.2236 6.7612 6.1646 7.6582 7.7166C8.1052 8.4926 8.8902 8.8816 9.6742 8.8816C10.4592 8.8816 11.2432 8.4926 11.6902 7.7166C12.5872 6.1646 11.4672 4.2236 9.6742 4.2236M14.4011 9.3934L9.6741 17.5804L4.9471 9.3934C3.9611 7.6844 3.9611 5.6434 4.9471 3.9354C5.9341 2.2264 7.7011 1.2054 9.6741 1.2054C11.6481 1.2054 13.4151 2.2264 14.4011 3.9354C15.3881 5.6434 15.3881 7.6844 14.4011 9.3934M9.6741 -0.0006C4.5441 -0.0006 1.3381 5.5534 3.9031 9.9964L9.6741 19.9934L15.4451 9.9964C18.0111 5.5534 14.8041 -0.0006 9.6741 -0.0006" id="path_1" />
    <clipPath id="mask_1">
      <use xlink:href="#path_1" />
    </clipPath>
  </defs>
  <g id="Icon_Stroke20_Location" fill-opacity="1" transform="translate(0 0.00061035156)">
    <path d="M20 0L20 0L20 20L0 20L0 0L20 0Z" id="Icon_Stroke20_Location" fill="none" stroke="none" />
    <path d="M10.6462 7.1136C10.3542 7.6196 9.8692 7.6746 9.6742 7.6746C9.4792 7.6746 8.9952 7.6196 8.7022 7.1136C8.4102 6.6076 8.6042 6.1596 8.7022 5.9906C8.7992 5.8226 9.0892 5.4296 9.6742 5.4296C10.2592 5.4296 10.5492 5.8226 10.6462 5.9906C10.7442 6.1596 10.9382 6.6076 10.6462 7.1136M9.6742 4.2236C7.8812 4.2236 6.7612 6.1646 7.6582 7.7166C8.1052 8.4926 8.8902 8.8816 9.6742 8.8816C10.4592 8.8816 11.2432 8.4926 11.6902 7.7166C12.5872 6.1646 11.4672 4.2236 9.6742 4.2236M14.4011 9.3934L9.6741 17.5804L4.9471 9.3934C3.9611 7.6844 3.9611 5.6434 4.9471 3.9354C5.9341 2.2264 7.7011 1.2054 9.6741 1.2054C11.6481 1.2054 13.4151 2.2264 14.4011 3.9354C15.3881 5.6434 15.3881 7.6844 14.4011 9.3934M9.6741 -0.0006C4.5441 -0.0006 1.3381 5.5534 3.9031 9.9964L9.6741 19.9934L15.4451 9.9964C18.0111 5.5534 14.8041 -0.0006 9.6741 -0.0006" id="Mask" fill="#FFFFFF" fill-rule="evenodd" stroke="none" />
  </g>
</svg>