<?xml version="1.0" encoding="utf-8"?>
<svg width="93.5px" height="92px" viewBox="0 0 93.5 92" version="1.1" xmlns:xlink="http://www.w3.org/1999/xlink" xmlns="http://www.w3.org/2000/svg">
  <path d="M57.4638 3.68127C32.6473 8.36464 -1.69073 18.0078 0.0875587 35.3405C2.85764 62.34 45.11 109.113 70.5108 85.5846C85.3983 71.7946 86.8444 44.7694 85.4911 24.7606C84.5595 10.9855 71.0309 1.1209 57.4638 3.68127Z" id="Path-2-Copy" fill="#D8EFF1" fill-rule="evenodd" stroke="none" />
  <g id="Group-29" transform="translate(17 24)">
    <path d="M54 14.1841L54 30.3878C54 30.3878 51.3062 42.9328 26.4228 42.1488C26.4228 42.1488 4.10462 42.1488 0 30.7798L0 14.4454C0 14.4454 3.71984 23.9847 27.4489 24.3767C48.0711 24.7174 54 14.1841 54 14.1841Z" id="Stroke-1" fill="none" fill-rule="evenodd" stroke="#29ABB7" stroke-width="3" stroke-linecap="round" stroke-linejoin="round" />
    <path d="M6 28.1841L6 20.1841" id="Stroke-3" fill="none" fill-rule="evenodd" stroke="#29ABB7" stroke-width="3" stroke-linecap="round" stroke-linejoin="round" />
    <path d="M12 22.1841L12 28.1841" id="Stroke-5" fill="none" fill-rule="evenodd" stroke="#29ABB7" stroke-width="3" stroke-linecap="round" stroke-linejoin="round" />
    <path d="M18 24.1841L18 33.1841" id="Stroke-7" fill="none" fill-rule="evenodd" stroke="#29ABB7" stroke-width="3" stroke-linecap="round" stroke-linejoin="round" />
    <path d="M24 25.1841L24 31.1841" id="Stroke-9" fill="none" fill-rule="evenodd" stroke="#29ABB7" stroke-width="3" stroke-linecap="round" stroke-linejoin="round" />
    <path d="M30 24.1841L30 33.1841" id="Stroke-11" fill="none" fill-rule="evenodd" stroke="#29ABB7" stroke-width="3" stroke-linecap="round" stroke-linejoin="round" />
    <path d="M37 24.1841L37 30.1841" id="Stroke-13" fill="none" fill-rule="evenodd" stroke="#29ABB7" stroke-width="3" stroke-linecap="round" stroke-linejoin="round" />
    <path d="M43 22.1841L43 31.1841" id="Stroke-15" fill="none" fill-rule="evenodd" stroke="#29ABB7" stroke-width="3" stroke-linecap="round" stroke-linejoin="round" />
    <path d="M48.9678 20.1841L49.0322 26.1841" id="Stroke-17" fill="none" fill-rule="evenodd" stroke="#29ABB7" stroke-width="3" stroke-linecap="round" stroke-linejoin="round" />
    <path d="M59 21.1841L59 15.1841" id="Stroke-19" fill="none" fill-rule="evenodd" stroke="#29ABB7" stroke-width="3" stroke-linecap="round" stroke-linejoin="round" />
    <path d="M65 24.1841L65 17.1841" id="Stroke-21" fill="none" fill-rule="evenodd" stroke="#29ABB7" stroke-width="3" stroke-linecap="round" stroke-linejoin="round" />
    <path d="M70 32.1841L70 18.1841" id="Stroke-23" fill="none" fill-rule="evenodd" stroke="#29ABB7" stroke-width="3" stroke-linecap="round" stroke-linejoin="round" />
    <path d="M39 11.6841C39 14.7217 33.8511 17.1841 27.4999 17.1841C21.1486 17.1841 16 14.7217 16 11.6841C16 8.64646 21.1486 6.18406 27.4999 6.18406C33.8511 6.18406 39 8.64646 39 11.6841Z" id="Stroke-25" fill="none" fill-rule="evenodd" stroke="#29ABB7" stroke-width="3" stroke-linecap="round" stroke-linejoin="round" />
    <path d="M0 13.177C0 13.177 0 0.446532 27.049 0.18406C27.049 0.18406 53.0308 0.249678 54.7779 12.4552C56.1237 13.8531 57.7553 14.9388 59.5658 15.6071C62.381 16.646 67.1961 17.8201 75 18.1642L75 32.8632C75 32.8632 67.6232 34.7005 55.1986 29.582" id="Stroke-27" fill="none" fill-rule="evenodd" stroke="#29ABB7" stroke-width="3" stroke-linecap="round" stroke-linejoin="round" />
  </g>
</svg>