<?xml version="1.0" encoding="utf-8"?>
<svg width="87px" height="92px" viewBox="0 0 87 92" version="1.1" xmlns:xlink="http://www.w3.org/1999/xlink" xmlns="http://www.w3.org/2000/svg">
  <path d="M57.4638 3.68127C32.6473 8.36464 -1.69073 18.0078 0.0875587 35.3405C2.85764 62.34 45.11 109.113 70.5108 85.5846C85.3983 71.7946 86.8444 44.7694 85.4911 24.7606C84.5595 10.9855 71.0309 1.1209 57.4638 3.68127Z" id="Path-2-Copy-2" fill="#D8EFF1" fill-rule="evenodd" stroke="none" />
  <g id="Group-23" transform="translate(14 10)">
    <path d="M44 13.7855L36.5801 0.805332C35.9677 -0.267345 34.4407 -0.268663 33.8263 0.802696L22.9692 19.7333L1.23571 24.8127C0.0588209 25.0875 -0.399076 26.5403 0.401107 27.4582L10.4787 39" id="Stroke-1" fill="none" fill-rule="evenodd" stroke="#29ABB7" stroke-width="3" stroke-linecap="round" stroke-linejoin="round" />
    <path d="M13.5384 42.7009L14.9529 44.2529L13.0069 65.8906C12.8974 67.1032 14.1133 67.9975 15.2301 67.5249L35.4036 58.9965L55.6755 67.8637C56.7969 68.354 58.0304 67.4551 57.9164 66.2306L55.8551 44.1237L70.5813 27.8247C71.4117 26.9047 70.9431 25.4265 69.7371 25.1603L47.8804 20.3277L46.7229 18" id="Stroke-3" fill="none" fill-rule="evenodd" stroke="#29ABB7" stroke-width="3" stroke-linecap="round" stroke-linejoin="round" />
    <path d="M18 29.5L21 29.5" id="Stroke-5" fill="none" fill-rule="evenodd" stroke="#29ABB7" stroke-width="3" stroke-linecap="round" stroke-linejoin="round" />
    <path d="M29 29.5L32 29.5" id="Stroke-7" fill="none" fill-rule="evenodd" stroke="#29ABB7" stroke-width="3" stroke-linecap="round" stroke-linejoin="round" />
    <path d="M35 29.5L38 29.5" id="Stroke-9" fill="none" fill-rule="evenodd" stroke="#29ABB7" stroke-width="3" stroke-linecap="round" stroke-linejoin="round" />
    <path d="M42 30.1836C42 30.1836 51.0532 28.7092 52.71 34.1168C54.3681 39.525 48.3757 41 48.3757 41" id="Stroke-11" fill="none" fill-rule="evenodd" stroke="#29ABB7" stroke-width="3" stroke-linecap="round" stroke-linejoin="round" />
    <path d="M42 46.5L45 46.5" id="Stroke-13" fill="none" fill-rule="evenodd" stroke="#29ABB7" stroke-width="3" stroke-linecap="round" stroke-linejoin="round" />
    <path d="M35 46.5L38 46.5" id="Stroke-15" fill="none" fill-rule="evenodd" stroke="#29ABB7" stroke-width="3" stroke-linecap="round" stroke-linejoin="round" />
    <path d="M19 30C19 30 23.1336 46 24.8668 46C26.6007 46 31 30.6298 31 30.6298" id="Stroke-17" fill="none" fill-rule="evenodd" stroke="#29ABB7" stroke-width="3" stroke-linecap="round" stroke-linejoin="round" />
    <path d="M36.5 31L36.5 46" id="Stroke-19" fill="none" fill-rule="evenodd" stroke="#29ABB7" stroke-width="3" stroke-linecap="round" stroke-linejoin="round" />
    <path d="M44.5 31L44.5 46" id="Stroke-21" fill="none" fill-rule="evenodd" stroke="#29ABB7" stroke-width="3" stroke-linecap="round" stroke-linejoin="round" />
  </g>
</svg>